<svg width="40" height="40" viewBox="0 0 40 40" fill="none" xmlns="http://www.w3.org/2000/svg">
<rect width="40" height="40" rx="4" fill="#1C203F" fill-opacity="0.12"/>
<path fill-rule="evenodd" clip-rule="evenodd" d="M13.1513 14.7318C14.3392 14.7318 15.3059 13.7612 15.3046 12.5709C15.3034 11.3978 14.3332 10.4305 13.1559 10.4294C11.9701 10.4284 10.9961 11.4043 11 12.5892C11.0038 13.7612 11.9786 14.7328 13.1513 14.7318ZM20.9134 17.9892C21.0019 17.8899 21.0849 17.79 21.1666 17.6916C21.3145 17.5134 21.4581 17.3404 21.6227 17.1856C22.4081 16.4456 23.3373 16.0718 24.4223 16.0804C25.0183 16.0858 25.6077 16.1289 26.1825 16.2948C27.4972 16.675 28.2613 17.5799 28.6256 18.865C28.8988 19.828 28.9493 20.8168 28.951 21.8089C28.9527 22.8139 28.9514 23.8192 28.95 24.8244C28.9486 25.9116 28.9471 26.9989 28.9495 28.0858C28.9499 28.2818 28.895 28.3335 28.7022 28.3314C27.6242 28.3228 26.5462 28.3228 25.4682 28.3314C25.2785 28.3335 25.2376 28.2743 25.2382 28.0955C25.2442 26.1048 25.2458 24.1131 25.2393 22.1224C25.2377 21.6237 25.2059 21.1249 25.0659 20.6402C24.8081 19.7461 24.1684 19.2905 23.2322 19.34C21.954 19.4079 21.2892 20.0402 21.1262 21.3404C21.0873 21.6506 21.0688 21.9619 21.0692 22.2743C21.0697 22.9071 21.0697 23.5397 21.0696 24.1723C21.0696 25.476 21.0695 26.7796 21.0743 28.0836C21.075 28.2764 21.0266 28.3335 20.8294 28.3314C19.7437 28.3217 18.6578 28.3238 17.5721 28.3314C17.3979 28.3325 17.3477 28.2851 17.3479 28.1095C17.3526 24.2757 17.3528 20.442 17.3477 16.6082C17.3473 16.4187 17.4096 16.3745 17.589 16.3756C18.6201 16.3842 19.6513 16.3842 20.6822 16.3756C20.872 16.3734 20.9211 16.4348 20.9169 16.6147C20.9093 16.9412 20.9108 17.2682 20.9122 17.5949V17.595C20.9128 17.7265 20.9134 17.8579 20.9134 17.9892ZM15.0072 23.6628V23.6629C15.0066 25.1286 15.006 26.5946 15.012 28.0599C15.0128 28.271 14.9604 28.3346 14.7422 28.3324C13.6648 28.3206 12.587 28.3238 11.5095 28.3314C11.3368 28.3324 11.2848 28.2894 11.285 28.1105C11.2902 24.2703 11.2899 20.4301 11.286 16.591C11.2859 16.4316 11.3243 16.3756 11.4931 16.3766C12.5863 16.3831 13.6795 16.3853 14.7727 16.3745C14.9826 16.3723 15.0112 16.4542 15.0107 16.6341C15.0066 18.1288 15.007 19.6236 15.0073 21.1189V21.119L15.0075 22.3712C15.0075 22.8017 15.0073 23.2323 15.0072 23.6628Z" fill="#1C203F"/>
</svg>
