<svg width="104" height="48" viewBox="0 0 104 48" fill="none" xmlns="http://www.w3.org/2000/svg">
<path d="M29.4886 10.2575L29.2911 20.5151L18.7595 10.5863L8.22785 0.657536H4.60759H1.05316L3.81772 3.48493C5.33165 4.99726 10.4 9.79726 15.0076 14.137L23.4987 21.9616L11.7165 34.4548C5.26582 41.2932 0 47.1452 0 47.474C0 47.737 1.4481 48 3.22532 48H6.45063L17.838 35.7041L29.2911 23.4082L29.4886 35.3753L29.6203 47.3425H32.2532H34.8861V36.1644V24.9863H46.4051H57.924V36.1644V47.3425H60.557H63.1899L63.3215 30.4438L63.519 13.5452L72.2076 30.3123C76.9468 39.5178 81.2253 47.0795 81.7519 47.211C82.3443 47.3425 85.3722 41.8849 90.7038 31.1014L98.7342 14.7945V31.1014V47.3425H101.367H104V23.6712V0H102.157C100.38 0 99.919 0.854797 91.0987 18.674L81.8177 37.2822L72.5367 18.674L63.1899 0H60.557H57.924V9.86301V19.726H46.4051H34.8861V9.86301V0H32.2532H29.6861L29.4886 10.2575Z" fill="#1C203F"/>
</svg>
