<svg width="366" height="48" viewBox="0 0 366 48" fill="none" xmlns="http://www.w3.org/2000/svg">
<path d="M293.63 36.3837V34.7197H298.03V36.3837H293.63Z" fill="#484C58"/>
<path d="M284.923 39.9997V30.8477H286.939V39.9997H284.923Z" fill="#484C58"/>
<path d="M273.704 39.9997V30.8477H275.368L280.888 37.5357H280.136V30.8477H282.136V39.9997H280.472L274.952 33.3117H275.72V39.9997H273.704Z" fill="#484C58"/>
<path d="M260.191 39.9997L257.135 30.8477H259.215L261.887 39.0397H260.831L263.632 30.8477H265.52L268.191 39.0397H267.184L269.919 30.8477H271.872L268.816 39.9997H266.656L264.24 32.7517H264.799L262.367 39.9997H260.191Z" fill="#484C58"/>
<path d="M247.061 39.9997L251.221 30.8477H253.221L257.365 39.9997H255.365L251.877 31.8717H252.549L249.029 39.9997H247.061ZM249.125 38.0157L249.669 36.4797H254.437L254.981 38.0157H249.125Z" fill="#484C58"/>
<path d="M238.345 39.9997V30.8477H242.297C243.118 30.8477 243.828 30.981 244.425 31.2477C245.022 31.5037 245.481 31.877 245.801 32.3677C246.132 32.8583 246.297 33.4503 246.297 34.1437C246.297 34.8263 246.132 35.413 245.801 35.9037C245.481 36.3943 245.022 36.7677 244.425 37.0237C243.828 37.2797 243.118 37.4077 242.297 37.4077H239.465L240.361 36.5277V39.9997H238.345ZM244.297 39.9997L241.945 36.6717H244.121L246.473 39.9997H244.297ZM240.361 36.7677L239.625 35.8237H242.153C242.857 35.8237 243.385 35.6797 243.737 35.3917C244.089 35.093 244.265 34.677 244.265 34.1437C244.265 33.6103 244.089 33.1997 243.737 32.9117C243.385 32.6237 242.857 32.4797 242.153 32.4797H239.625L240.361 31.5517V36.7677Z" fill="#484C58"/>
<path d="M228.283 39.9997V30.8477H232.235C233.056 30.8477 233.765 30.981 234.363 31.2477C234.96 31.5037 235.419 31.877 235.739 32.3677C236.069 32.8583 236.235 33.4503 236.235 34.1437C236.235 34.837 236.069 35.4343 235.739 35.9357C235.419 36.4263 234.96 36.805 234.363 37.0717C233.765 37.3277 233.056 37.4557 232.235 37.4557H229.403L230.299 36.5277V39.9997H228.283ZM230.299 36.7677L229.563 35.8237H232.091C232.795 35.8237 233.323 35.6797 233.675 35.3917C234.027 35.093 234.203 34.677 234.203 34.1437C234.203 33.6103 234.027 33.1997 233.675 32.9117C233.323 32.6237 232.795 32.4797 232.091 32.4797H229.563L230.299 31.5517V36.7677Z" fill="#484C58"/>
<path d="M216.417 34.5757H221.057V36.1437H216.417V34.5757ZM216.689 38.3837H221.777V39.9997H214.673V30.8477H221.601V32.4797H216.689V38.3837Z" fill="#484C58"/>
<path d="M209.876 39.9997V30.8477H211.892V39.9997H209.876Z" fill="#484C58"/>
<path d="M196.363 39.9997L193.307 30.8477H195.387L198.059 39.0397H197.003L199.803 30.8477H201.691L204.363 39.0397H203.355L206.091 30.8477H208.043L204.987 39.9997H202.827L200.411 32.7517H200.971L198.539 39.9997H196.363Z" fill="#484C58"/>
<path d="M187.54 40.1601C186.569 40.1601 185.7 39.9574 184.932 39.5521C184.174 39.1361 183.577 38.5708 183.14 37.8561C182.702 37.1414 182.484 36.3308 182.484 35.4241C182.484 34.5174 182.702 33.7121 183.14 33.0081C183.577 32.2934 184.174 31.7334 184.932 31.3281C185.7 30.9121 186.564 30.7041 187.524 30.7041C188.494 30.7041 189.358 30.9121 190.116 31.3281C190.884 31.7334 191.486 32.2934 191.924 33.0081C192.361 33.7121 192.58 34.5174 192.58 35.4241C192.58 36.3308 192.361 37.1414 191.924 37.8561C191.486 38.5708 190.884 39.1361 190.116 39.5521C189.358 39.9574 188.5 40.1601 187.54 40.1601ZM187.524 38.4481C188.11 38.4481 188.628 38.3201 189.076 38.0641C189.534 37.7974 189.892 37.4348 190.148 36.9761C190.404 36.5174 190.532 36.0001 190.532 35.4241C190.532 34.8374 190.398 34.3201 190.132 33.8721C189.876 33.4134 189.524 33.0561 189.076 32.8001C188.628 32.5441 188.116 32.4161 187.54 32.4161C186.964 32.4161 186.446 32.5441 185.988 32.8001C185.529 33.0561 185.166 33.4134 184.9 33.8721C184.644 34.3201 184.516 34.8374 184.516 35.4241C184.516 36.0001 184.644 36.5174 184.9 36.9761C185.166 37.4348 185.529 37.7974 185.988 38.0641C186.446 38.3201 186.958 38.4481 187.524 38.4481Z" fill="#484C58"/>
<path d="M177.867 40.1601C176.907 40.1601 176.048 39.9574 175.291 39.5521C174.534 39.1361 173.936 38.5708 173.499 37.8561C173.062 37.1414 172.843 36.3308 172.843 35.4241C172.843 34.5174 173.062 33.7121 173.499 33.0081C173.936 32.2934 174.534 31.7334 175.291 31.3281C176.048 30.9121 176.907 30.7041 177.867 30.7041C178.699 30.7041 179.424 30.8321 180.043 31.0881C180.672 31.3334 181.206 31.7228 181.643 32.2561L180.331 33.5041C180.011 33.1308 179.648 32.8588 179.243 32.6881C178.838 32.5068 178.4 32.4161 177.931 32.4161C177.344 32.4161 176.816 32.5441 176.347 32.8001C175.888 33.0561 175.526 33.4134 175.259 33.8721C175.003 34.3201 174.875 34.8374 174.875 35.4241C174.875 36.0108 175.003 36.5334 175.259 36.9921C175.526 37.4508 175.888 37.8081 176.347 38.0641C176.816 38.3201 177.344 38.4481 177.931 38.4481C178.4 38.4481 178.838 38.3574 179.243 38.1761C179.648 37.9948 180.011 37.7174 180.331 37.3441L181.643 38.6081C181.206 39.1308 180.672 39.5201 180.043 39.7761C179.414 40.0321 178.688 40.1601 177.867 40.1601Z" fill="#484C58"/>
<path d="M162.298 39.9997V30.8477H166.442C167.488 30.8477 168.389 31.0343 169.146 31.4077C169.914 31.781 170.506 32.3143 170.922 33.0077C171.349 33.6903 171.562 34.4957 171.562 35.4237C171.562 36.3623 171.349 37.173 170.922 37.8557C170.506 38.5383 169.914 39.0663 169.146 39.4397C168.389 39.813 167.488 39.9997 166.442 39.9997H162.298ZM164.314 38.3677H166.378C167.029 38.3677 167.589 38.2503 168.058 38.0157C168.528 37.781 168.89 37.445 169.146 37.0077C169.402 36.5703 169.53 36.0423 169.53 35.4237C169.53 34.805 169.402 34.277 169.146 33.8397C168.89 33.4023 168.528 33.0717 168.058 32.8477C167.589 32.613 167.029 32.4957 166.378 32.4957H164.314V38.3677Z" fill="#484C58"/>
<path d="M150.686 39.9997L154.846 30.8477H156.846L160.99 39.9997H158.99L155.502 31.8717H156.174L152.654 39.9997H150.686ZM152.75 38.0157L153.294 36.4797H158.062L158.606 38.0157H152.75Z" fill="#484C58"/>
<path d="M141.97 39.9997V30.8477H145.922C146.743 30.8477 147.453 30.981 148.05 31.2477C148.647 31.5037 149.106 31.877 149.426 32.3677C149.757 32.8583 149.922 33.4503 149.922 34.1437C149.922 34.8263 149.757 35.413 149.426 35.9037C149.106 36.3943 148.647 36.7677 148.05 37.0237C147.453 37.2797 146.743 37.4077 145.922 37.4077H143.09L143.986 36.5277V39.9997H141.97ZM147.922 39.9997L145.57 36.6717H147.746L150.098 39.9997H147.922ZM143.986 36.7677L143.25 35.8237H145.778C146.482 35.8237 147.01 35.6797 147.362 35.3917C147.714 35.093 147.89 34.677 147.89 34.1437C147.89 33.6103 147.714 33.1997 147.362 32.9117C147.01 32.6237 146.482 32.4797 145.778 32.4797H143.25L143.986 31.5517V36.7677Z" fill="#484C58"/>
<path d="M130.88 36.3837V34.7197H135.28V36.3837H130.88Z" fill="#484C58"/>
<path d="M363.595 19.9997V10.8477H365.611V19.9997H363.595Z" fill="#484C58"/>
<path d="M355.278 17.8877L355.166 15.5357L359.742 10.8477H361.982L357.982 15.1037L356.846 16.2717L355.278 17.8877ZM353.47 19.9997V10.8477H355.486V19.9997H353.47ZM359.838 19.9997L356.462 15.9837L357.774 14.5277L362.222 19.9997H359.838Z" fill="#484C58"/>
<path d="M351.582 17.2961C351.582 17.8721 351.422 18.3734 351.102 18.8001C350.793 19.2268 350.35 19.5628 349.774 19.8081C349.198 20.0428 348.494 20.1601 347.662 20.1601C346.947 20.1601 346.243 20.0641 345.55 19.8721C344.867 19.6801 344.318 19.4294 343.902 19.1201L344.654 17.5521C345.038 17.8401 345.507 18.0694 346.062 18.2401C346.617 18.4108 347.182 18.4961 347.758 18.4961C348.441 18.4961 348.915 18.3948 349.182 18.1921C349.449 17.9894 349.582 17.7494 349.582 17.4721C349.582 17.2161 349.481 17.0134 349.278 16.8641C349.086 16.7148 348.825 16.5974 348.494 16.5121C348.174 16.4161 347.822 16.3308 347.438 16.2561C347.054 16.1708 346.67 16.0748 346.286 15.9681C345.902 15.8614 345.55 15.7121 345.23 15.5201C344.91 15.3281 344.649 15.0721 344.446 14.7521C344.254 14.4321 344.158 14.0268 344.158 13.5361C344.158 12.9708 344.318 12.4748 344.638 12.0481C344.958 11.6214 345.406 11.2908 345.982 11.0561C346.569 10.8214 347.257 10.7041 348.046 10.7041C348.611 10.7041 349.177 10.7681 349.742 10.8961C350.318 11.0134 350.819 11.2108 351.246 11.4881L350.558 13.0561C350.153 12.7894 349.726 12.6081 349.278 12.5121C348.841 12.4054 348.409 12.3521 347.982 12.3521C347.342 12.3521 346.878 12.4534 346.59 12.6561C346.313 12.8588 346.174 13.1148 346.174 13.4241C346.174 13.6801 346.27 13.8828 346.462 14.0321C346.665 14.1814 346.926 14.3041 347.246 14.4001C347.566 14.4854 347.918 14.5654 348.302 14.6401C348.697 14.7148 349.081 14.8108 349.454 14.9281C349.838 15.0348 350.19 15.1841 350.51 15.3761C350.841 15.5574 351.102 15.8028 351.294 16.1121C351.486 16.4214 351.582 16.8161 351.582 17.2961Z" fill="#484C58"/>
<path d="M331.535 19.9997L328.479 10.8477H330.559L333.231 19.0397H332.175L334.975 10.8477H336.863L339.535 19.0397H338.527L341.263 10.8477H343.215L340.159 19.9997H337.999L335.583 12.7517H336.143L333.711 19.9997H331.535Z" fill="#484C58"/>
<path d="M322.712 20.1601C321.741 20.1601 320.872 19.9574 320.104 19.5521C319.346 19.1361 318.749 18.5708 318.312 17.8561C317.874 17.1414 317.656 16.3308 317.656 15.4241C317.656 14.5174 317.874 13.7121 318.312 13.0081C318.749 12.2934 319.346 11.7334 320.104 11.3281C320.872 10.9121 321.736 10.7041 322.696 10.7041C323.666 10.7041 324.53 10.9121 325.288 11.3281C326.056 11.7334 326.658 12.2934 327.096 13.0081C327.533 13.7121 327.752 14.5174 327.752 15.4241C327.752 16.3308 327.533 17.1414 327.096 17.8561C326.658 18.5708 326.056 19.1361 325.288 19.5521C324.53 19.9574 323.672 20.1601 322.712 20.1601ZM322.696 18.4481C323.282 18.4481 323.8 18.3201 324.248 18.0641C324.706 17.7974 325.064 17.4348 325.32 16.9761C325.576 16.5174 325.704 16.0001 325.704 15.4241C325.704 14.8374 325.57 14.3201 325.304 13.8721C325.048 13.4134 324.696 13.0561 324.248 12.8001C323.8 12.5441 323.288 12.4161 322.712 12.4161C322.136 12.4161 321.618 12.5441 321.16 12.8001C320.701 13.0561 320.338 13.4134 320.072 13.8721C319.816 14.3201 319.688 14.8374 319.688 15.4241C319.688 16.0001 319.816 16.5174 320.072 16.9761C320.338 17.4348 320.701 17.7974 321.16 18.0641C321.618 18.3201 322.13 18.4481 322.696 18.4481Z" fill="#484C58"/>
<path d="M312.442 20.1597C311.802 20.1597 311.22 20.0423 310.698 19.8077C310.175 19.573 309.759 19.2317 309.45 18.7837L310.682 17.5197C310.906 17.8183 311.162 18.053 311.45 18.2237C311.738 18.3837 312.052 18.4637 312.394 18.4637C313.268 18.4637 313.706 17.941 313.706 16.8957V12.4797H310.458V10.8477H315.722V16.7197C315.722 17.8823 315.439 18.7463 314.874 19.3117C314.308 19.877 313.498 20.1597 312.442 20.1597Z" fill="#484C58"/>
<path d="M303.542 14.5757H308.182V16.1437H303.542V14.5757ZM303.814 18.3837H308.902V19.9997H301.798V10.8477H308.726V12.4797H303.814V18.3837Z" fill="#484C58"/>
<path d="M297.001 19.9997V10.8477H299.017V19.9997H297.001Z" fill="#484C58"/>
<path d="M291.398 20.1601C290.438 20.1601 289.58 19.9574 288.822 19.5521C288.065 19.1361 287.468 18.5708 287.03 17.8561C286.593 17.1414 286.374 16.3308 286.374 15.4241C286.374 14.5174 286.593 13.7121 287.03 13.0081C287.468 12.2934 288.065 11.7334 288.822 11.3281C289.58 10.9121 290.438 10.7041 291.398 10.7041C292.23 10.7041 292.956 10.8321 293.574 11.0881C294.204 11.3334 294.737 11.7228 295.174 12.2561L293.862 13.5041C293.542 13.1308 293.18 12.8588 292.774 12.6881C292.369 12.5068 291.932 12.4161 291.462 12.4161C290.876 12.4161 290.348 12.5441 289.878 12.8001C289.42 13.0561 289.057 13.4134 288.79 13.8721C288.534 14.3201 288.406 14.8374 288.406 15.4241C288.406 16.0108 288.534 16.5334 288.79 16.9921C289.057 17.4508 289.42 17.8081 289.878 18.0641C290.348 18.3201 290.876 18.4481 291.462 18.4481C291.932 18.4481 292.369 18.3574 292.774 18.1761C293.18 17.9948 293.542 17.7174 293.862 17.3441L295.174 18.6081C294.737 19.1308 294.204 19.5201 293.574 19.7761C292.945 20.0321 292.22 20.1601 291.398 20.1601Z" fill="#484C58"/>
<path d="M275.67 19.9997L279.83 10.8477H281.83L285.974 19.9997H283.974L280.486 11.8717H281.158L277.638 19.9997H275.67ZM277.734 18.0157L278.278 16.4797H283.046L283.59 18.0157H277.734Z" fill="#484C58"/>
<path d="M263.986 19.9997V10.8477H265.714L269.602 17.2477H268.786L272.61 10.8477H274.338L274.354 19.9997H272.434L272.418 13.8717H272.722L269.618 18.9757H268.706L265.506 13.8717H265.906V19.9997H263.986Z" fill="#484C58"/>
<path d="M254.832 23.1039V8.12793H256.672V23.1039H254.832Z" fill="#484C58"/>
<path d="M238.686 19.9997L242.846 10.8477H244.846L248.99 19.9997H246.99L243.502 11.8717H244.174L240.654 19.9997H238.686ZM240.75 18.0157L241.294 16.4797H246.062L246.606 18.0157H240.75Z" fill="#484C58"/>
<path d="M231.908 19.9997V10.8477H233.924V18.3677H238.628V19.9997H231.908Z" fill="#484C58"/>
<path d="M220.295 19.9997L224.455 10.8477H226.455L230.599 19.9997H228.599L225.111 11.8717H225.783L222.263 19.9997H220.295ZM222.359 18.0157L222.903 16.4797H227.671L228.215 18.0157H222.359Z" fill="#484C58"/>
<path d="M208.611 19.9997V10.8477H210.339L214.227 17.2477H213.411L217.235 10.8477H218.963L218.979 19.9997H217.059L217.043 13.8717H217.347L214.243 18.9757H213.331L210.131 13.8717H210.531V19.9997H208.611Z" fill="#484C58"/>
<path d="M196.998 19.9997L201.158 10.8477H203.158L207.302 19.9997H205.302L201.814 11.8717H202.486L198.966 19.9997H196.998ZM199.062 18.0157L199.606 16.4797H204.374L204.918 18.0157H199.062Z" fill="#484C58"/>
<path d="M187.251 19.9997V10.8477H189.267V14.5277H193.667V10.8477H195.683V19.9997H193.667V16.1917H189.267V19.9997H187.251Z" fill="#484C58"/>
<path d="M180.583 16.3837V14.7197H184.983V16.3837H180.583Z" fill="#484C58"/>
<path d="M173.341 17.8877L173.229 15.5357L177.805 10.8477H180.045L176.045 15.1037L174.909 16.2717L173.341 17.8877ZM171.533 19.9997V10.8477H173.549V19.9997H171.533ZM177.901 19.9997L174.525 15.9837L175.837 14.5277L180.285 19.9997H177.901Z" fill="#484C58"/>
<path d="M159.92 19.9997L164.08 10.8477H166.08L170.224 19.9997H168.224L164.736 11.8717H165.408L161.888 19.9997H159.92ZM161.984 18.0157L162.528 16.4797H167.296L167.84 18.0157H161.984Z" fill="#484C58"/>
<path d="M151.577 19.9997V18.6877L157.401 11.7757L157.609 12.4957H151.673V10.8477H159.433V12.1757L153.609 19.0717L153.385 18.3677H159.625V19.9997H151.577Z" fill="#484C58"/>
<path d="M145.415 20.1601C144.444 20.1601 143.575 19.9574 142.807 19.5521C142.049 19.1361 141.452 18.5708 141.015 17.8561C140.577 17.1414 140.359 16.3308 140.359 15.4241C140.359 14.5174 140.577 13.7121 141.015 13.0081C141.452 12.2934 142.049 11.7334 142.807 11.3281C143.575 10.9121 144.439 10.7041 145.399 10.7041C146.369 10.7041 147.233 10.9121 147.991 11.3281C148.759 11.7334 149.361 12.2934 149.799 13.0081C150.236 13.7121 150.455 14.5174 150.455 15.4241C150.455 16.3308 150.236 17.1414 149.799 17.8561C149.361 18.5708 148.759 19.1361 147.991 19.5521C147.233 19.9574 146.375 20.1601 145.415 20.1601ZM145.399 18.4481C145.985 18.4481 146.503 18.3201 146.951 18.0641C147.409 17.7974 147.767 17.4348 148.023 16.9761C148.279 16.5174 148.407 16.0001 148.407 15.4241C148.407 14.8374 148.273 14.3201 148.007 13.8721C147.751 13.4134 147.399 13.0561 146.951 12.8001C146.503 12.5441 145.991 12.4161 145.415 12.4161C144.839 12.4161 144.321 12.5441 143.863 12.8001C143.404 13.0561 143.041 13.4134 142.775 13.8721C142.519 14.3201 142.391 14.8374 142.391 15.4241C142.391 16.0001 142.519 16.5174 142.775 16.9761C143.041 17.4348 143.404 17.7974 143.863 18.0641C144.321 18.3201 144.833 18.4481 145.399 18.4481Z" fill="#484C58"/>
<path d="M133.2 17.8877L133.088 15.5357L137.664 10.8477H139.904L135.904 15.1037L134.768 16.2717L133.2 17.8877ZM131.392 19.9997V10.8477H133.408V19.9997H131.392ZM137.76 19.9997L134.384 15.9837L135.696 14.5277L140.144 19.9997H137.76Z" fill="#484C58"/>
<path d="M29.4886 10.2575L29.2911 20.5151L18.7595 10.5863L8.22785 0.657536H4.60759H1.05316L3.81772 3.48493C5.33165 4.99726 10.4 9.79726 15.0076 14.137L23.4987 21.9616L11.7165 34.4548C5.26582 41.2932 0 47.1452 0 47.474C0 47.737 1.4481 48 3.22532 48H6.45063L17.838 35.7041L29.2911 23.4082L29.4886 35.3753L29.6203 47.3425H32.2532H34.8861V36.1644V24.9863H46.4051H57.924V36.1644V47.3425H60.557H63.1899L63.3215 30.4438L63.519 13.5452L72.2076 30.3123C76.9468 39.5178 81.2253 47.0795 81.7519 47.211C82.3443 47.3425 85.3722 41.8849 90.7038 31.1014L98.7342 14.7945V31.1014V47.3425H101.367H104V23.6712V0H102.157C100.38 0 99.919 0.854797 91.0987 18.674L81.8177 37.2822L72.5367 18.674L63.1899 0H60.557H57.924V9.86301V19.726H46.4051H34.8861V9.86301V0H32.2532H29.6861L29.4886 10.2575Z" fill="#1C203F"/>
<rect x="116" width="2" height="48" fill="#1C203F"/>
</svg>
